<svg width="162" height="158" viewBox="0 0 162 158" fill="none" xmlns="http://www.w3.org/2000/svg">
<path d="M21.757 51.418C25.6077 21.8867 52.7507 -0.592186 83.1632 0.457814C115.273 1.56641 137.712 26.9211 140.712 51.4133C139.793 50.2109 139.09 49.0227 138.134 48.0922C135.429 45.4531 133.612 42.3336 131.923 38.9516C126.816 28.7234 119.501 20.3773 109.535 14.5203C108.729 14.0516 107.894 13.625 107.062 13.1891C106.861 13.1097 106.653 13.0462 106.441 12.9992C106.441 15.7367 106.404 18.3734 106.488 21.0055C106.488 21.3453 107.088 21.7437 107.487 21.9852C112.388 24.9008 116.591 28.8534 119.803 33.5656C107.759 26.8742 94.8023 23.6445 81.1054 23.6445C67.4085 23.6445 54.5062 27.0195 42.4663 33.6359L42.232 33.3641C43.4999 31.8734 44.7351 30.3523 46.0452 28.8992C48.607 26.0586 51.6702 23.8484 54.9749 21.9523C55.6359 21.5703 55.8843 21.1438 55.8679 20.3773C55.8163 18.0031 55.8491 15.6266 55.8491 13.0297C55.289 13.2875 54.9116 13.4375 54.553 13.6273C42.8859 19.8242 34.7788 29.2859 29.4749 41.2344C28.7507 42.8633 27.9257 44.2344 26.6624 45.493C25.0874 47.0445 23.8007 48.8914 22.3921 50.6117C22.2046 50.8391 22.0241 51.0781 21.757 51.418Z" fill="white"/>
<path d="M62.7586 137.579C62.3086 139.374 61.882 141.066 61.4039 142.97C60.232 142.501 59.0601 142.074 57.8882 141.563C44.2523 135.58 34.7859 125.436 28.7507 111.999C24.9 103.428 22.7906 94.4211 22.8796 84.9734C22.9265 80.2086 22.9945 75.4391 22.8632 70.6766C22.6007 61.2359 26.4304 53.6961 33.4664 47.7078C40.8211 41.4453 49.2773 37.1609 58.507 34.3719C69.7195 30.9758 81.1195 30.3102 92.6906 31.9273C104.158 33.4756 115.082 37.7734 124.53 44.4547C128.182 47.0328 131.562 49.9344 134.201 53.5836C137.531 58.168 139.357 63.2797 139.425 68.9633C139.488 75.0172 139.596 81.0758 139.467 87.1274C139.277 95.9891 137.02 104.401 133.406 112.459C129.642 120.854 124.322 128.103 117.169 133.918C112.515 137.681 107.277 140.656 101.662 142.726C101.484 142.791 101.299 142.838 101.079 142.904C100.624 141.104 100.181 139.353 99.7242 137.541C100.073 137.373 100.413 137.195 100.765 137.04C116.665 129.98 126.712 117.875 131.552 101.295C133.13 96.0111 133.886 90.5156 133.793 85.0016C133.685 79.9649 133.627 74.9234 133.828 69.8867C134.062 63.9266 131.817 59.0867 127.767 54.9383C121.158 48.1648 113.18 43.6227 104.219 40.7727C96.1968 38.218 87.9539 36.9219 79.5281 37.1938C64.8633 37.6625 51.2601 41.4359 39.4265 50.4922C36.0914 53.0469 33.0211 55.8523 30.9445 59.5883C29.3601 62.4406 28.4765 65.4711 28.4812 68.7523C28.4812 74.1828 28.5843 79.6133 28.4437 85.0391C28.221 93.6617 30.2625 101.79 33.7922 109.538C39.4312 121.911 48.3234 131.141 60.8554 136.705C61.5 136.984 62.1234 137.284 62.7586 137.579Z" fill="white"/>
<path d="M96.7313 128.72C92.4024 124.428 87.4922 121.569 81.2625 121.611C75.0328 121.653 70.057 124.278 65.9016 128.795C63.968 127.496 62.0812 126.252 60.2344 124.951C60.0963 124.83 59.9847 124.682 59.9065 124.517C59.8283 124.351 59.7851 124.171 59.7797 123.988C59.7656 115.394 59.7797 106.8 59.8219 98.2063C59.8436 97.9678 59.9131 97.7362 60.0263 97.5252C60.1394 97.3142 60.2939 97.1282 60.4805 96.9781C65.9977 92.8891 71.5398 88.8305 77.107 84.8024C77.7187 84.3641 78.5976 84.282 79.3641 84.0852C79.657 84.0102 79.9922 84.118 80.3016 84.0688C83.0976 83.6 85.3101 84.7344 87.4805 86.3844C92.0484 89.8531 96.7219 93.1813 101.379 96.5328C102.277 97.1797 102.663 97.8641 102.654 99.0289C102.593 107.19 102.607 115.351 102.654 123.512C102.654 124.416 102.373 124.918 101.639 125.387C99.9914 126.453 98.407 127.576 96.7313 128.72ZM90.5344 102.193C89.3812 100.866 88.3172 99.7695 87.4125 98.5555C86.7281 97.6391 85.9758 97.3836 84.9164 97.686C82.6852 98.307 80.4352 98.1547 78.1828 97.7844C77.6079 97.6773 77.0258 97.6131 76.4414 97.5922C76.147 97.5787 75.8583 97.6766 75.6328 97.8664C74.4094 99.2141 73.2258 100.597 71.9508 102.057C74.4047 104.087 76.718 106.053 79.0922 107.945C80.2102 108.838 82.2187 108.882 83.3812 107.987C85.7836 106.133 88.1039 104.173 90.5344 102.193ZM69.2438 116.286H93.4805C91.1508 114.77 89.0766 113.452 87.0398 112.081C86.1656 111.493 85.2703 111.296 84.2742 111.613C82.222 112.262 80.0194 112.262 77.9672 111.613C77.3906 111.437 76.5609 111.437 76.0734 111.737C73.7766 113.152 71.5594 114.718 69.2438 116.286Z" fill="white"/>
<path d="M108.834 54.4836L115.46 61.7352C113.967 61.3859 112.451 60.9735 110.911 60.6922C110.122 60.531 109.31 60.5207 108.518 60.6617C103.177 61.782 97.8445 62.9469 92.5195 64.1563C91.7007 64.3805 90.9223 64.7325 90.2132 65.1992C89.114 65.8649 88.1554 66.8 87 67.325C85.5937 67.9649 85.4202 68.8977 85.4835 70.2805C85.6101 73.1164 85.521 75.9617 85.521 78.8727C82.7085 78.4039 79.6617 78.0125 76.4882 79.0531C76.7226 75.4461 76.9289 71.9563 77.1492 68.4102C75.1992 67.1047 73.2375 65.7664 71.2429 64.475C70.8329 64.2526 70.3871 64.1035 69.9257 64.0344C64.364 62.8133 58.807 61.5781 53.2312 60.4227C52.5538 60.2844 51.7734 60.5563 51.0586 60.7109C49.7343 60.9992 48.4242 61.3414 47.189 61.6484C49.2984 59.3047 51.4523 56.9164 53.5968 54.5399C53.5101 54.4203 53.4234 54.3055 53.3343 54.1859L46.8773 55.5688L46.739 55.2781C49.2867 54.125 51.7476 52.7 54.3961 51.8656C67.6687 47.6984 81.2062 46.4234 94.9851 48.7555C98.557 49.3625 102.166 49.9836 105.609 51.0688C109.052 52.1539 112.362 53.8391 115.725 55.2617L115.587 55.6133L109.038 54.132L108.834 54.4836Z" fill="white"/>
<path d="M67.6265 143.989C67.6242 142.198 67.9779 140.424 68.6671 138.77C69.3563 137.117 70.3673 135.617 71.6413 134.357C72.9153 133.098 74.4269 132.104 76.0882 131.434C77.7495 130.764 79.5274 130.431 81.3187 130.454C83.0914 130.444 84.8485 130.786 86.4876 131.462C88.1266 132.137 89.6148 133.132 90.8654 134.389C92.116 135.645 93.1041 137.138 93.7719 138.78C94.4398 140.423 94.7741 142.181 94.7554 143.954C94.7554 151.482 88.8444 157.341 81.3374 157.28C73.4859 157.217 67.6265 151.531 67.6265 143.989ZM76.1882 144.313C76.1085 147.184 78.3351 149.63 81.0702 149.684C83.9273 149.741 86.2523 147.453 86.3226 144.528C86.3402 143.186 85.827 141.891 84.8947 140.925C83.9624 139.96 82.6864 139.401 81.3445 139.372C80.0068 139.346 78.7134 139.851 77.748 140.777C76.7826 141.703 76.2242 142.975 76.1952 144.313H76.1882Z" fill="white"/>
<path d="M91.7437 79.25L99.1944 82.0625L99.3819 81.8914L94.1858 74.8602L94.3335 74.6C95.2077 74.907 96.2085 75.0266 96.9304 75.5375C100.237 77.9422 103.697 78.0758 107.348 76.5336C107.502 76.4831 107.659 76.4416 107.817 76.4094C107.876 77.607 107.932 78.7531 108.005 80.2906L117.764 73.3203C117.764 76.7281 117.745 80.0703 117.778 83.4125C117.778 84.1156 117.544 84.5258 116.981 84.943C113.723 87.3649 110.489 89.8164 107.278 92.2977C106.655 92.7805 106.235 92.8297 105.565 92.3469C102.049 89.8109 98.4913 87.3359 94.9522 84.8328C94.6846 84.6755 94.4543 84.462 94.2772 84.207C93.4382 82.6391 92.6507 81.0453 91.7437 79.25Z" fill="white"/>
<path d="M44.6578 73.3109L54.4101 80.3422V76.4492C54.9023 76.5992 55.214 76.6836 55.5211 76.789C58.8023 77.9 61.9312 77.907 64.9195 75.8515C65.7562 75.2797 66.7945 74.9914 67.732 74.5719L67.9664 74.8625L63.0445 81.9898L70.6008 79.2172C69.4289 81.3992 68.9601 83.8484 66.6164 85.3461C62.9812 87.6898 59.5851 90.3828 56.0695 92.9398C52.4344 90.2047 48.8414 87.5164 45.2766 84.7953C45.1156 84.671 44.9807 84.5161 44.8798 84.3395C44.7788 84.1629 44.7138 83.9682 44.6883 83.7664C44.6391 80.3468 44.6578 76.9156 44.6578 73.3109Z" fill="white"/>
<path d="M17.3694 94.2641C14.4796 94.1445 11.6554 91.6859 11.1843 88.8078C11.0272 87.7269 10.9567 86.6351 10.9733 85.543C10.9733 78.1273 11.0108 70.7094 10.9968 63.2937C10.9968 62.4523 11.2312 61.8875 11.9671 61.4867C13.7577 60.4836 15.5249 59.443 17.3577 58.3789L17.3694 94.2641Z" fill="white"/>
<path d="M144.916 94.2852C144.916 82.332 144.916 70.3789 144.916 58.2313C146.955 59.4477 148.87 60.5539 150.731 61.7469C150.899 61.8866 151.036 62.0603 151.132 62.2566C151.228 62.453 151.282 62.6674 151.289 62.8859C151.289 71 151.289 79.1164 151.209 87.2305C151.167 91.0625 148.343 94.1094 144.916 94.2852Z" fill="white"/>
<path d="M37.589 101.084L50.7375 110.054C50.7375 109.002 50.857 108.099 50.6906 107.253C50.5945 106.784 50.0953 106.302 49.664 105.978C45.9422 103.201 42.2414 100.388 38.4281 97.7398C36.8344 96.6336 35.85 95.3961 35.7633 93.425C35.7164 92.3516 35.4047 91.2875 35.1586 89.9094C36.2203 90.6969 37.0336 91.3156 37.875 91.9203C43.0203 95.6703 48.1609 99.4203 53.2969 103.17C53.6203 103.405 53.9648 103.887 53.9672 104.255C54.0094 109.88 53.9976 115.505 53.9976 121.442C50.0133 118.58 45.9304 116.187 43.1836 112.147L50.775 116.987C50.775 115.857 50.8242 114.896 50.7469 113.94C50.663 113.579 50.4451 113.264 50.1375 113.059C46.8562 110.741 43.575 108.406 40.2328 106.175C39.1031 105.423 38.2664 104.6 38.0062 103.229C37.8391 102.56 37.6285 101.904 37.3758 101.262L37.589 101.084Z" fill="white"/>
<path d="M127.334 89.8555C126.935 91.8477 126.63 93.6828 126.162 95.4688C126.023 95.982 125.384 96.4063 124.896 96.7719C121.052 99.643 117.274 102.615 113.299 105.289C111.455 106.529 111.265 107.966 111.659 110.021L124.535 101.063C124.158 103.016 124.088 104.888 122.053 106.112C118.988 107.956 116.194 110.27 113.215 112.248C111.888 113.124 111.22 114.104 111.502 115.686C111.563 116.026 111.502 116.389 111.502 117.064L118.62 112.475C116.105 116.368 112.195 118.63 108.464 121.381C108.431 120.859 108.391 120.528 108.391 120.195C108.391 115.039 108.391 109.883 108.361 104.741C108.361 103.904 108.63 103.405 109.298 102.917C115.111 98.6984 120.898 94.4656 126.694 90.2352C126.846 90.125 127.013 90.0477 127.334 89.8555Z" fill="white"/>
<path d="M9.89994 33.95C11.1773 33.95 12.3023 33.9195 13.4156 33.95C14.9085 34.0015 15.6585 34.6531 15.6421 35.7875C15.6257 36.9219 14.8734 37.5336 13.3617 37.5781C12.2765 37.6109 11.189 37.5781 9.94448 37.5781V40.3133C9.94448 42.2351 9.42887 42.9687 8.10465 42.9758C6.85308 42.9758 6.34916 42.2445 6.32807 40.3976C6.32807 39.5797 6.29995 38.757 6.2812 37.939C6.24994 37.8141 6.20676 37.6925 6.15228 37.5758C4.98041 37.5758 3.73589 37.5898 2.50073 37.5758C1.1812 37.5547 0.391357 36.8445 0.391357 35.7383C0.40542 34.6929 1.16714 34.0015 2.44683 33.964C3.68433 33.9265 4.92416 33.964 6.2976 33.964C6.2976 32.7078 6.28353 31.5875 6.2976 30.4695C6.31869 29.1476 7.00073 28.3859 8.14916 28.3953C9.23198 28.3953 9.81089 29.0984 9.85777 30.4578C9.87652 31.0039 9.87416 31.55 9.87651 32.0984C9.87885 32.6469 9.89994 33.1719 9.89994 33.95Z" fill="white"/>
<path d="M152.001 37.5946C150.916 37.5946 149.756 37.6157 148.598 37.5946C147.192 37.5617 146.475 36.9453 146.461 35.8039C146.447 34.7399 147.274 34.0274 148.608 33.9735C149.191 33.95 149.78 33.9735 150.366 33.9735H152.182C152.182 32.7243 152.182 31.5711 152.182 30.4157C152.194 29.1477 152.92 28.3508 154.038 28.3532C155.119 28.3532 155.784 29.0938 155.81 30.3735C155.834 31.4985 155.81 32.6258 155.81 33.9735H159.609C161.016 33.9735 161.744 34.5453 161.831 35.6727C161.913 36.7391 161.196 37.4586 159.764 37.5477C158.524 37.6321 157.273 37.5664 155.827 37.5664V40.8899C155.808 42.2071 155.123 42.9992 154.012 42.9992C152.902 42.9992 152.224 42.1907 152.208 40.8899C152.197 39.9149 152.182 38.9391 152.163 37.9625C152.173 37.8899 152.114 37.8219 152.001 37.5946Z" fill="white"/>
<path d="M126.347 133.719C128.006 135.889 129.598 137.952 131.151 140.047C131.213 140.171 131.241 140.309 131.235 140.447C131.229 140.586 131.188 140.721 131.116 140.839C129.651 142.227 128.147 143.572 126.541 145.03L123.044 139.944C119.001 143.18 114.647 145.684 109.615 146.895C115.828 143.391 121.319 138.983 126.347 133.719Z" fill="white"/>
<path d="M39.2671 140.082L35.7702 145.109L30.7476 140.403L36.0046 133.801C41.0108 138.748 46.1741 143.342 52.2936 146.722C52.2468 146.827 52.2022 146.933 52.1554 147.036C49.9405 146.098 47.6436 145.29 45.5296 144.148C43.4155 143.007 41.4116 141.498 39.2671 140.082Z" fill="white"/>
<path d="M21.2202 128.745L27.8249 123.073L31.4296 128.07L25.4812 134.434L21.2202 128.745Z" fill="white"/>
<path d="M134.564 122.966C136.61 124.803 138.584 126.554 140.522 128.356C140.7 128.523 140.805 129.043 140.684 129.221C139.547 130.876 138.34 132.502 137.095 134.23L131.121 127.885C132.124 126.453 133.301 124.763 134.564 122.966Z" fill="white"/>
<path d="M145.085 122.366L137.653 117.099L140.116 111.875C141.968 112.958 143.803 114.013 145.617 115.1C148.036 116.548 148.041 116.565 146.812 119.068C146.287 120.141 145.706 121.184 145.085 122.366Z" fill="white"/>
<path d="M22.1578 111.889C22.9781 113.605 23.7328 115.135 24.4289 116.691C24.5109 116.872 24.3422 117.308 24.157 117.437C21.8953 119.014 19.6078 120.554 17.161 122.216C16.1953 120.27 15.2859 118.447 14.332 116.506L22.1578 111.889Z" fill="white"/>
<path d="M53.9203 71.3914C55.0031 71.1148 55.7578 71.2227 56.5242 72.1203C58.4718 74.3961 61.7648 74.2156 63.8976 71.8555C64.6828 70.9883 64.6828 70.9883 65.9648 71.3211C65.4234 73.8148 63.0656 75.7508 60.4617 75.8445C57.2883 75.957 54.7359 74.2461 53.9203 71.3914Z" fill="white"/>
<path d="M96.5952 71.3399C97.6921 71.075 98.4116 71.2508 99.1335 72.1977C100.802 74.3867 104.29 74.3281 106.193 72.0875C106.91 71.2414 107.599 70.9977 108.593 71.2414C108.291 73.461 105.766 75.6149 103.226 75.8188C100.101 76.0625 97.5046 74.3469 96.5952 71.3399Z" fill="white"/>
<path d="M139.737 18.4274C138.237 18.4274 137.067 17.361 137.053 15.9524C137.067 15.247 137.349 14.5734 137.842 14.0687C138.335 13.5641 139.001 13.2662 139.706 13.236C140.047 13.2359 140.384 13.3034 140.698 13.4344C141.013 13.5655 141.298 13.7575 141.538 13.9993C141.777 14.2412 141.967 14.5282 142.095 14.8437C142.223 15.1592 142.287 15.497 142.284 15.8375C142.27 17.3774 141.251 18.4063 139.737 18.4274Z" fill="white"/>
<path d="M22.6265 18.4344C22.2871 18.4435 21.9493 18.3844 21.6332 18.2606C21.317 18.1368 21.0289 17.9509 20.7859 17.7138C20.5429 17.4767 20.3499 17.1932 20.2184 16.8802C20.0869 16.5672 20.0195 16.2309 20.0203 15.8914C20.0209 15.1844 20.3022 14.5066 20.8023 14.0069C21.3024 13.5072 21.9805 13.2266 22.6875 13.2266C23.3744 13.2474 24.0259 13.5366 24.5022 14.0321C24.9784 14.5276 25.2416 15.1901 25.2351 15.8773C25.2365 16.2179 25.1695 16.5552 25.0382 16.8695C24.907 17.1837 24.7141 17.4684 24.4709 17.7068C24.2277 17.9452 23.9392 18.1324 23.6224 18.2574C23.3056 18.3823 22.967 18.4425 22.6265 18.4344Z" fill="white"/>
</svg>
